name C:/MyDriveSym/Projects/mobilecap/Data\Session20210819_0002\mocap\ForceDataProcessed\walking2_forces.mot
datacolumns 19
datarows 24
range 0.98950000 1.00100000
endheader 
time	R_ground_force_vx	R_ground_force_vy	R_ground_force_vz	R_ground_force_px	R_ground_force_py	R_ground_force_pz	R_ground_torque_x	R_ground_torque_y	R_ground_torque_z	L_ground_force_vx	L_ground_force_vy	L_ground_force_vz	L_ground_force_px	L_ground_force_py	L_ground_force_pz	L_ground_torque_x	L_ground_torque_y	L_ground_torque_z	
          0.98950000	          0.00000000	          0.00000000	          0.00000000	          1.24721200	          0.00000000	         -0.19016700	          0.00000000	          0.00000000	          0.00000000	         35.59869400	        596.65930800	         20.24787000	          0.93549100	          0.00600000	         -0.29318900	          0.00000000	          3.95014000	          0.00000000	
          0.99000000	          0.00000000	          0.00000000	          0.00000000	          1.24877300	          0.00000000	         -0.19021300	          0.00000000	          0.00000000	          0.00000000	         35.98723000	        597.46160500	         20.29316500	          0.93559200	          0.00600000	         -0.29319200	          0.00000000	          3.94894300	          0.00000000	
          0.99050000	          0.00000000	          0.00000000	          0.00000000	          1.25033500	          0.00000000	         -0.19025900	          0.00000000	          0.00000000	          0.00000000	         36.37694100	        598.26120800	         20.33816400	          0.93569200	          0.00600000	         -0.29319600	          0.00000000	          3.94765100	          0.00000000	
          0.99100000	          0.00000000	          0.00000000	          0.00000000	          1.25189600	          0.00000000	         -0.19030600	          0.00000000	          0.00000000	          0.00000000	         36.76781400	        599.05802600	         20.38286400	          0.93579200	          0.00600000	         -0.29319900	          0.00000000	          3.94626300	          0.00000000	
          0.99150000	          0.00000000	          0.00000000	          0.00000000	          1.25345800	          0.00000000	         -0.19035200	          0.00000000	          0.00000000	          0.00000000	         37.15983700	        599.85196800	         20.42726000	          0.93589200	          0.00600000	         -0.29320300	          0.00000000	          3.94478000	          0.00000000	
          0.99200000	          0.00000000	          0.00000000	          0.00000000	          1.25501900	          0.00000000	         -0.19039800	          0.00000000	          0.00000000	          0.00000000	         37.55299800	        600.64294500	         20.47134600	          0.93599100	          0.00600000	         -0.29320600	          0.00000000	          3.94320200	          0.00000000	
          0.99250000	          0.00000000	          0.00000000	          0.00000000	          1.25658100	          0.00000000	         -0.19044400	          0.00000000	          0.00000000	          0.00000000	         37.94728400	        601.43086400	         20.51512000	          0.93609000	          0.00600000	         -0.29321000	          0.00000000	          3.94152800	          0.00000000	
          0.99300000	          0.00000000	          0.00000000	          0.00000000	          1.25814200	          0.00000000	         -0.19049100	          0.00000000	          0.00000000	          0.00000000	         38.34268100	        602.21563500	         20.55857600	          0.93618900	          0.00600000	         -0.29321400	          0.00000000	          3.93975800	          0.00000000	
          0.99350000	          0.00000000	          0.00000000	          0.00000000	          1.25970400	          0.00000000	         -0.19053700	          0.00000000	          0.00000000	          0.00000000	         38.73917600	        602.99716600	         20.60171000	          0.93628800	          0.00600000	         -0.29321700	          0.00000000	          3.93789200	          0.00000000	
          0.99400000	          0.00000000	          0.00000000	          0.00000000	          1.26126600	          0.00000000	         -0.19058300	          0.00000000	          0.00000000	          0.00000000	         39.13675700	        603.77536600	         20.64451800	          0.93638600	          0.00600000	         -0.29322100	          0.00000000	          3.93593000	          0.00000000	
          0.99450000	          0.00000000	          0.00000000	          0.00000000	          1.26282700	          0.00000000	         -0.19062900	          0.00000000	          0.00000000	          0.00000000	         39.53540800	        604.55014300	         20.68699600	          0.93648500	          0.00600000	         -0.29322400	          0.00000000	          3.93387200	          0.00000000	
          0.99500000	          0.00000000	          0.00000000	          0.00000000	          1.26438900	          0.00000000	         -0.19067500	          0.00000000	          0.00000000	          0.00000000	         39.93511600	        605.32140500	         20.72913900	          0.93658200	          0.00600000	         -0.29322800	          0.00000000	          3.93171800	          0.00000000	
          0.99550000	          0.00000000	          0.00000000	          0.00000000	          1.26595000	          0.00000000	         -0.19072200	          0.00000000	          0.00000000	          0.00000000	         40.33586600	        606.08906000	         20.77094300	          0.93668000	          0.00600000	         -0.29323100	          0.00000000	          3.92946700	          0.00000000	
          0.99600000	          0.00000000	          0.00000000	          0.00000000	          1.26751200	          0.00000000	         -0.19076800	          0.00000000	          0.00000000	          0.00000000	         40.73764500	        606.85301500	         20.81240400	          0.93677800	          0.00600000	         -0.29323500	          0.00000000	          3.92711900	          0.00000000	
          0.99650000	          0.00000000	          0.00000000	          0.00000000	          1.26907300	          0.00000000	         -0.19081400	          0.00000000	          0.00000000	          0.00000000	         41.14043600	        607.61317800	         20.85351800	          0.93687500	          0.00600000	         -0.29323900	          0.00000000	          3.92467400	          0.00000000	
          0.99700000	          0.00000000	          0.00000000	          0.00000000	          1.27063500	          0.00000000	         -0.19086000	          0.00000000	          0.00000000	          0.00000000	         41.54422700	        608.36945600	         20.89428000	          0.93697200	          0.00600000	         -0.29324200	          0.00000000	          3.92213300	          0.00000000	
          0.99750000	          0.00000000	          0.00000000	          0.00000000	          1.27219600	          0.00000000	         -0.19090700	          0.00000000	          0.00000000	          0.00000000	         41.94900000	        609.12175700	         20.93468700	          0.93706900	          0.00600000	         -0.29324600	          0.00000000	          3.91949400	          0.00000000	
          0.99800000	          0.00000000	          0.00000000	          0.00000000	          1.27375800	          0.00000000	         -0.19095300	          0.00000000	          0.00000000	          0.00000000	         42.35474200	        609.86998600	         20.97473500	          0.93716500	          0.00600000	         -0.29325000	          0.00000000	          3.91675800	          0.00000000	
          0.99850000	          0.00000000	          0.00000000	          0.00000000	          1.27532000	          0.00000000	         -0.19099900	          0.00000000	          0.00000000	          0.00000000	         42.76143500	        610.61405200	         21.01441800	          0.93726100	          0.00600000	         -0.29325300	          0.00000000	          3.91392500	          0.00000000	
          0.99900000	          0.00000000	          0.00000000	          0.00000000	          1.27688100	          0.00000000	         -0.19104500	          0.00000000	          0.00000000	          0.00000000	         43.16906600	        611.35386000	         21.05373400	          0.93735700	          0.00600000	         -0.29325700	          0.00000000	          3.91099500	          0.00000000	
          0.99950000	          0.00000000	          0.00000000	          0.00000000	          1.27844300	          0.00000000	         -0.19109200	          0.00000000	          0.00000000	          0.00000000	         43.57761600	        612.08931700	         21.09267900	          0.93745300	          0.00600000	         -0.29326100	          0.00000000	          3.90796700	          0.00000000	
          1.00000000	          0.00000000	          0.00000000	          0.00000000	          1.28000400	          0.00000000	         -0.19113800	          0.00000000	          0.00000000	          0.00000000	         43.98707100	        612.82033000	         21.13124700	          0.93754900	          0.00600000	         -0.29326400	          0.00000000	          3.90484100	          0.00000000	
          1.00050000	          0.00000000	          0.00000000	          0.00000000	          1.28156600	          0.00000000	         -0.19118400	          0.00000000	          0.00000000	          0.00000000	         44.39741300	        613.54680400	         21.16943600	          0.93764400	          0.00600000	         -0.29326800	          0.00000000	          3.90161800	          0.00000000	
          1.00100000	          0.00000000	          0.00000000	          0.00000000	          1.28312700	          0.00000000	         -0.19123000	          0.00000000	          0.00000000	          0.00000000	         44.80862500	        614.26864700	         21.20724200	          0.93774000	          0.00600000	         -0.29327200	          0.00000000	          3.89829700	          0.00000000	
